<svg xmlns="http://www.w3.org/2000/svg" viewBox="0 0 200 200" width="200" height="200">
    <!-- Cabeça redonda e grande -->
    <circle cx="100" cy="70" r="40" fill="#8B4513" />

    <!-- Corpo pequeno e coberto de pelos -->
    <ellipse cx="100" cy="130" rx="30" ry="20" fill="#A9A9A9" />

    <!-- Braços compridos com mãos pequenas e garras grandes -->
    <rect x="40" y="110" width="20" height="40" fill="#A9A9A9" />
    <rect x="140" y="110" width="20" height="40" fill="#A9A9A9" />

    <!-- Pernas curtas -->
    <rect x="70" y="150" width="20" height="30" fill="#A9A9A9" />
    <rect x="110" y="150" width="20" height="30" fill="#A9A9A9" />

    <!-- Pés grandes e arredondados -->
    <ellipse cx="80" cy="180" rx="15" ry="10" fill="#8B4513" />
    <ellipse cx="120" cy="180" rx="15" ry="10" fill="#8B4513" />

    <!-- Olho no meio da testa -->
    <circle cx="100" cy="60" r="5" fill="#FFFFFF" stroke="#000000" />

    <!-- Orelhas pontiagudas -->
    <polygon points="80,45 90,25 100,45" fill="#8B4513" />
    <polygon points="110,45 120,25 130,45" fill="#8B4513" />

    <!-- Nariz com narinas quadradas -->
    <rect x="95" y="70" width="10" height="10" fill="#A9A9A9" />

    <!-- Boca grande com dentes falhados -->
    <rect x="80" y="80" width="40" height="15" fill="#FF0000" />
    <rect x="85" y="80" width="5" height="15" fill="#FFFFFF" />
    <rect x="95" y="80" width="5" height="15" fill="#FFFFFF" />
    <rect x="105" y="80" width="5" height="15" fill="#FFFFFF" />
    <rect x="115" y="80" width="5" height="15" fill="#FFFFFF" />
    <rect x="125" y="80" width="5" height="15" fill="#FFFFFF" />
</svg>
